<?xml version="1.0" encoding="UTF-8"?>
<!DOCTYPE svg PUBLIC "-//W3C//DTD SVG 1.1//EN" "http://www.w3.org/Graphics/SVG/1.1/DTD/svg11.dtd">
<!-- Creator: CorelDRAW 2019 (64-Bit) -->
<svg xmlns="http://www.w3.org/2000/svg" xml:space="preserve" width="188.588mm" height="31.2125mm" version="1.1" style="shape-rendering:geometricPrecision; text-rendering:geometricPrecision; image-rendering:optimizeQuality; fill-rule:evenodd; clip-rule:evenodd"
viewBox="0 0 188.5616 31.2082"
 xmlns:xlink="http://www.w3.org/1999/xlink"
 xmlns:xodm="http://www.corel.com/coreldraw/odm/2003">
 <defs>
  <style type="text/css">
   <![CDATA[
    .fil1 {fill:#C9001C}
    .fil0 {fill:#070407}
   ]]>
  </style>
 </defs>
 <g id="Layer_x0020_1">
  <metadata id="CorelCorpID_0Corel-Layer"/>
  <g id="_730037552">
   <g>
    <path class="fil0" d="M184.1166 26.463l0 -1.4277 1.1504 0c0.491,0 1.0053,0.0999 1.0053,0.7154 0,0.6156 -0.5142,0.7123 -1.0053,0.7123l-1.1504 0zm2.6878 -0.7733l0 0c-0.04,-0.8509 -0.7263,-1.0038 -1.4255,-1.0038l-1.7559 0 0 4.0188 0.4935 0 0 -1.8525 0.9036 0 1.1492 1.8525 0.5886 0 -1.2146 -1.8589c0.7649,-0.0316 1.3008,-0.2995 1.2622,-1.1561l-0.0012 0zm-1.8407 4.1356l0 0c1.7135,0 3.0194,-1.4481 3.0194,-3.1236 0,-1.6797 -1.3046,-3.1285 -3.0194,-3.1285 -1.7173,0 -3.0208,1.4488 -3.0208,3.1285 0,1.676 1.3035,3.1236 3.0208,3.1236zm0 -6.7268l0 0c-1.9886,0 -3.6004,1.6118 -3.6004,3.6036 0,1.9878 1.6118,3.5983 3.6004,3.5983 0.955,0 1.8703,-0.3792 2.5439,-1.0541 0.6761,-0.6746 1.0541,-1.5901 1.0541,-2.5443 0,-1.9918 -1.6095,-3.6036 -3.5979,-3.6036z"/>
   </g>
   <path class="fil1" d="M71.7236 13.4463c0.7265,9.2841 -6.8938,17.4694 -16.1223,17.7542 -9.7542,0.3018 -16.8122,-8.2117 -14.8861,-17.7542l31.0083 0zm-0.9683 -4.2444l0 0c-2.278,-5.8541 -7.9209,-9.3577 -14.1044,-9.1964 -6.105,0.1577 -11.6746,3.8067 -14.4424,9.1964l28.5465 0 0.0003 0z"/>
   <g>
    <path class="fil0" d="M9.466 13.4463l16.6668 0c1.1512,0 2.1515,-0.9352 2.2579,-2.0833 0.1099,-1.1977 -0.7926,-2.1615 -1.9958,-2.1615l-19.9488 0 2.5333 -7.3731c0.2176,-0.6292 0.8253,-1.0772 1.4966,-1.0772l17.5623 0c5.9803,0 10.4706,4.9201 9.9167,10.876 -0.5283,5.7034 -5.4984,10.2365 -11.2216,10.2386l-10.9714 0.0039c-1.0202,0.0011 -1.8992,0.6423 -2.2111,1.5499l-1.9926 5.8013c-0.2163,0.63 -0.8219,1.0792 -1.4928,1.0792l-8.0873 0c-1.432,0 -2.316,-1.3614 -1.8556,-2.7008l3.3894 -9.8621c0.8649,-2.5179 3.2711,-4.2908 5.954,-4.2908zm154.6664 16.8538l0 0 -1.8689 -6.9943c-0.2365,-0.8839 -0.9808,-1.4368 -1.8857,-1.4368l-2.5913 0.0011c-1.0206,0.0013 -1.8998,0.6425 -2.211,1.5496l-1.9922 5.8013c-0.2174,0.63 -0.8227,1.0792 -1.4938,1.0792l-8.0877 0c-1.4319,0 -2.315,-1.3614 -1.8535,-2.7008l3.3882 -9.8621c0.8639,-2.5179 3.2701,-4.2908 5.9541,-4.2908l16.6665 0c1.1505,0 2.1518,-0.9352 2.2572,-2.0833 0.1119,-1.1977 -0.7917,-2.1615 -1.9949,-2.1615l-19.9496 0 2.5349 -7.3731c0.216,-0.6292 0.824,-1.0772 1.4949,-1.0772l17.5639 0c5.9785,0 10.4696,4.9201 9.9156,10.876 -0.3727,4.0228 -2.9552,7.4614 -6.4502,9.1413l2.5528 9.5315 -11.9492 0zm-73.3526 -21.0982l0 0 2.2578 -6.5707c0.3201,-0.9306 -0.3048,-1.8799 -1.3017,-1.8799l-8.869 0c-0.6707,0 -1.2792,0.4482 -1.496,1.0776l-2.5342 7.3731 11.9431 0zm7.3732 21.0982l0 0 -23.7843 0c-1.4318,0 -2.3145,-1.3614 -1.8544,-2.7008l4.8635 -14.153 11.9425 0 -1.6666 4.849c-0.4602,1.339 0.4432,2.7008 1.8728,2.7008l10.1333 0c1.4327,0 2.345,1.3587 1.8859,2.6961l-1.9015 5.5286c-0.2165,0.63 -0.8211,1.0792 -1.4917,1.0792l0.0005 0zm27.4676 -28.9828l0 0 -6.5715 7.8846 17.7002 0 -0.6618 -7.2135c-0.0682,-0.7265 -0.6633,-1.2368 -1.3896,-1.2368l-7.8691 0c-0.4699,0 -0.9106,0.2086 -1.2083,0.5662l0.0002 -0.0005zm2.3908 28.9828l0 0 8.9476 0c0.8998,0 1.6531,-0.8189 1.5721,-1.7216l-1.3921 -15.1322 -21.6273 0 -11.1902 13.4264c-1.1342,1.3613 -0.3405,3.4274 1.4785,3.4274l7.108 0c0.4696,0 0.9135,-0.232 1.209,-0.5897l5.8745 -7.0449c0.4277,-0.5143 1.0679,-0.7973 1.7406,-0.7973l2.4003 0c1.0427,0 1.8991,0.7222 1.9957,1.7691l0.4967 5.3998c0.0607,0.719 0.6648,1.2694 1.3861,1.2631l0.0005 0z"/>
   </g>
  </g>
 </g>
</svg>
